<svg xmlns="http://www.w3.org/2000/svg" version="1.1" viewBox="-5.0 -10.0 110.0 135.0">
 <g>
  <path d="m69.652 31.406h0.050781c0.82031-0.003906 1.4922-0.64844 1.5312-1.4688 0.042969-0.84766-0.59375-1.5781-1.4414-1.6562-0.39062-0.054688-0.73438-0.28516-0.9375-0.625-0.32812-0.52344-0.91016-2.2031 0.71094-6.5195v0.003906c0.30078-0.80859-0.10938-1.7109-0.91797-2.0117-0.80859-0.30469-1.707 0.10938-2.0117 0.91797-1.582 4.2188-1.6992 7.3789-0.35156 9.3945l0.003906-0.003906c0.75391 1.1445 1.9961 1.8711 3.3633 1.9688z"/>
  <path d="m48.617 6.1719c6.7852 2.2188 6.1914 6.4766 6.0938 6.9648v0.003906c-0.17188 0.83594 0.36328 1.6602 1.2031 1.8398 0.10938 0.023437 0.22266 0.035156 0.33594 0.035156 0.73438 0 1.3711-0.51172 1.5273-1.2305 0.55078-2.5547-0.44922-8.0547-8.1875-10.582-0.80859-0.23828-1.6602 0.21094-1.9219 1.0117-0.26172 0.80469 0.16016 1.668 0.94922 1.957z"/>
  <path d="m35.918 17.117c-0.27344 0.57422-0.80469 0.98828-1.4297 1.1133-0.82422 0.089843-1.4336 0.80859-1.3867 1.6367 0.042969 0.82812 0.72656 1.4766 1.5547 1.4805h0.14062c1.6289-0.21875 3.0547-1.207 3.8242-2.6562 1.6914-3.043 0.82422-7.9922-2.5703-14.707-0.17969-0.38281-0.50391-0.67969-0.90234-0.81641-0.40234-0.14062-0.83984-0.10938-1.2148 0.078125-0.37891 0.19141-0.66406 0.52734-0.78906 0.92969-0.125 0.40625-0.082031 0.84375 0.11719 1.2148 3.7695 7.4414 3.2812 10.547 2.6562 11.727z"/>
  <path d="m37.445 62.039c-2.9297-7.8516-1.75-16.648 3.1406-23.457 0.54687-0.65234 1.5156-0.74609 2.1797-0.21094s0.77344 1.5 0.25 2.1758c-4.3633 5.9922-5.3203 13.809-2.5391 20.68 1.1602-4.9219 3.2695-9.5703 6.207-13.684 0.26562-0.35547 0.67188-0.58203 1.1133-0.625 0.046875 0 0.09375-0.007813 0.14453-0.007813 0.39453 0 0.77344 0.15234 1.0625 0.41797 4.6953 4.4922 7.7578 10.414 8.7109 16.84 3.3867-2.543 9.7188-8.0703 10.371-14.219 0.34375-3.25-0.9375-6.2188-3.8906-9.0781-6.2773-6.0625-7.4805-11.941-7.4492-15.652-1.6133 1.3359-2.9102 3.0156-3.7891 4.9219-0.26953 0.73828-1.0469 1.1602-1.8125 0.98828-0.76562-0.17578-1.2852-0.89062-1.2109-1.6719 0.53906-5.9141-0.9375-9.8867-3.0273-12.547 0.68359 5.3711-1.5469 10.914-6.6797 16.547-6.5352 7.168-9.2617 13.797-8.1094 19.707 0.78516 3.4492 2.6484 6.5586 5.3281 8.875z"/>
  <path d="m24.324 91.781c0.42969 1.5742 2.0469 2.5078 3.625 2.0898l46.148-12.359c1.5781-0.42578 2.5156-2.0469 2.0938-3.625l-0.51562-1.9297v0.003907c-0.42969-1.5781-2.0469-2.5117-3.625-2.0938l-46.148 12.359c-1.5742 0.42188-2.5117 2.043-2.0938 3.6172zm37.734-12.273 5.8203-1.6445 0.003906-0.003906c0.82813-0.23438 1.6914 0.25 1.9258 1.0781 0.23438 0.83203-0.25 1.6953-1.0781 1.9297l-5.8203 1.6445h-0.003906c-0.13672 0.039062-0.28125 0.058593-0.42578 0.058593-0.78125 0-1.4414-0.57422-1.5469-1.3477-0.10938-0.77344 0.375-1.5078 1.125-1.7188zm-16.496 3.9766 5.8242-1.6445h-0.003907c0.83203-0.23438 1.6953 0.25 1.9297 1.0781 0.23438 0.83203-0.25 1.6953-1.0781 1.9297l-5.8281 1.6445c-0.13672 0.039062-0.28125 0.058593-0.42578 0.058593-0.78125 0.003907-1.4414-0.57422-1.5508-1.3477-0.10547-0.77344 0.375-1.5078 1.1289-1.7188zm-16.008 4.0078 5.8242-1.6445v-0.003906c0.83203-0.23438 1.6953 0.25 1.9297 1.082 0.23438 0.82812-0.25 1.6914-1.082 1.9258l-5.8242 1.6445h0.003906c-0.14062 0.039062-0.28125 0.0625-0.42578 0.0625-0.78125 0-1.4453-0.57422-1.5508-1.3477-0.10547-0.77734 0.375-1.5078 1.125-1.7188z"/>
  <path d="m74.09 93.223c0.91406-0.51953 1.5781-1.3828 1.8477-2.3984 0.55469-2.1172-0.69922-4.2852-2.8125-4.8594l-1.7891-0.47656-15.297 4.0977 15.055 4.0234c1.0117 0.28125 2.0898 0.14062 2.9961-0.38672z"/>
  <path d="m26.855 81.762 1.8203 0.48828 15.305-4.1016-15.066-4.0312v0.003906c-2.1094-0.55859-4.2773 0.69141-4.8438 2.8008-0.09375 0.33984-0.14062 0.69531-0.14062 1.0469 0.003906 1.7812 1.2031 3.3398 2.9258 3.793z"/>
 </g>
<text x="0.0" y="117.5" font-size="5.0" font-weight="bold" font-family="Arbeit Regular, Helvetica, Arial-Unicode, Arial, Sans-serif" fill="#000000">Created by Muhammad Hilmi Fajri</text><text x="0.0" y="122.5" font-size="5.0" font-weight="bold" font-family="Arbeit Regular, Helvetica, Arial-Unicode, Arial, Sans-serif" fill="#000000">from Noun Project</text></svg>